<?xml version="1.0" standalone="no"?>
<!DOCTYPE svg PUBLIC "-//W3C//DTD SVG 20010904//EN"
 "http://www.w3.org/TR/2001/REC-SVG-20010904/DTD/svg10.dtd">
<svg version="1.0" xmlns="http://www.w3.org/2000/svg"
 width="108.000000pt" height="108.000000pt" viewBox="0 0 108.000000 108.000000"
 preserveAspectRatio="xMidYMid meet">

<g transform="translate(0.000000,108.000000) scale(0.100000,-0.100000)"
fill="#000000" stroke="none">
<path d="M0 540 l0 -540 540 0 540 0 0 540 0 540 -540 0 -540 0 0 -540z m129
461 c16 -28 62 -56 71 -41 5 8 19 2 46 -22 34 -29 37 -30 22 -7 -22 35 -8 57
18 28 10 -12 29 -25 41 -30 13 -5 32 -23 44 -41 17 -28 19 -29 14 -8 -11 40
-11 45 4 45 16 0 22 -8 60 -95 l30 -65 -6 88 c-5 76 -4 87 10 82 8 -4 18 -21
21 -40 4 -18 13 -46 20 -61 14 -28 52 -251 45 -258 -2 -2 -12 -6 -22 -8 -14
-2 -26 10 -44 45 -32 59 -43 54 -14 -6 25 -53 26 -56 4 -73 -17 -12 -16 -13 7
-14 64 0 125 77 85 106 -30 22 -13 24 43 5 96 -33 152 -113 152 -218 -1 -107
-61 -191 -159 -219 -195 -57 -358 145 -263 327 29 55 52 74 52 42 0 -24 19
-43 43 -43 22 0 17 7 -175 239 -143 173 -202 261 -174 261 8 0 20 -8 25 -19z"/>
<path d="M530 601 c0 -5 5 -13 10 -16 6 -3 10 -2 10 4 0 5 -4 13 -10 16 -5 3
-10 2 -10 -4z"/>
<path d="M349 458 c-3 -22 -1 -34 4 -29 5 5 7 21 5 37 -3 27 -4 26 -9 -8z"/>
<path d="M667 460 c-38 -33 -53 -37 -60 -17 -4 8 -6 7 -6 -4 -1 -8 -16 -23
-33 -33 -18 -9 -24 -14 -13 -10 11 3 27 7 35 9 8 2 17 4 20 5 3 1 21 1 40 1
51 -2 85 19 85 52 1 37 -25 36 -68 -3z m53 -5 c0 -8 -9 -19 -19 -25 -25 -13
-64 -13 -56 0 4 6 10 8 14 6 4 -3 14 4 21 15 17 22 40 25 40 4z"/>
<path d="M413 447 c-7 -12 41 -57 60 -56 7 0 2 5 -10 11 -25 12 -39 38 -20 38
24 0 57 -12 52 -19 -2 -4 6 -6 18 -5 12 1 31 3 42 4 12 1 6 5 -15 10 -19 4
-54 12 -78 18 -29 7 -44 7 -49 -1z"/>
<path d="M354 374 c4 -46 45 -117 77 -135 18 -9 16 -4 -10 28 -17 21 -40 63
-51 93 l-20 55 4 -41z"/>
<path d="M682 358 c-21 -21 -13 -36 23 -40 36 -4 42 3 29 36 -7 19 -35 21 -52
4z"/>
<path d="M456 326 c3 -7 18 -22 34 -34 24 -18 30 -19 40 -7 10 12 7 16 -16 25
-16 5 -37 14 -46 20 -13 7 -16 6 -12 -4z"/>
</g>
</svg>
